<svg xmlns="http://www.w3.org/2000/svg" viewBox="38.995 60 794.1 492.7">
	<defs>
		<style>
			.a{
				fill:#fa26fa
			}
		</style>
	</defs>
	<path class='a' d="M 50.265 552.222 L 41.03 551.925 L 38.995 548.122 L 39.5 148.5 L 56 148 L 56.071 129 H 66.6 L 69 126.6 V 115.118 L 71.5 113.5 L 122.5 112.5 L 123.545 82.253 L 126.007 79.287 L 140.251 77.963 L 142 76.882 V 65.222 L 145.5 60.941 L 367 60 L 371 65.377 V 75.617 L 373.5 78.944 L 390.415 79.5 L 391.801 84.5 L 392 113 H 654 L 655.272 129 L 685.5 129.031 L 688.5 130.923 L 689.5 175.903 L 692.052 178.452 L 830.5 179.192 L 832.5 181.097 L 833.098 251.321 L 830.5 252.969 L 818.5 253.027 L 813.896 254.261 L 814.333 284.067 L 812.037 286.363 L 799.869 287.797 L 798.609 289.057 L 797.5 338.837 L 795.85 340.483 L 780.242 343.142 L 780.255 370.962 L 776.954 376 L 767.036 378.5 L 767.5 409.046 L 748 412.95 V 442.755 L 744.765 445.44 L 728.594 446.5 L 728 463 L 713 466 V 497.882 L 710.757 499.268 L 689 500 L 689 531.836 L 687.786 535 H 674 L 673.836 549.438 L 672.064 552.749 Z M 90 532 L 101 532 L 103 530 L 103 511 L 105.081 508.688 L 117.5 507.5 L 118.5 476.5 L 120.118 474 H 137.05 L 138.919 469.082 L 139.364 441.875 L 143 439 L 153.5 438.5 L 154 423 L 156 421 L 171.225 420.175 L 173.5 417.901 L 173.794 386.872 L 175.027 385.64 L 192.162 384.74 L 192.875 382.5 L 193.726 352.874 L 195.97 350.63 L 208 349.76 L 208.5 318.071 L 211.683 314.889 H 227 V 263.07 L 230.87 261 H 241.821 L 242.501 230.303 L 245.246 227 H 256.871 L 261.71 225.16 L 262.118 183.5 L 264.977 179.108 L 666 178 L 667.97 174.5 V 152 L 638.501 150.236 L 634.001 148.865 V 136.143 L 630.858 133 L 373.677 132.076 L 371.501 129.907 L 370.387 101.053 L 369.12 99.787 L 351.501 98.738 L 350 97 L 349.761 87.501 L 344.693 80.5 L 167.501 80.054 L 163.001 81.038 V 95.618 L 160.456 99.098 L 145.778 100.02 L 144.001 101.118 V 127.091 L 139.092 132 L 92 132 L 90.001 135.118 V 146.618 L 87.377 150.206 L 74 150 L 73.715 166.059 L 71 169 L 60.501 169.656 L 60 528 L 62 532 Z M 647.56 531.2 L 653 529.063 L 653.2 519.5 L 654.579 514.551 L 667.5 512.5 L 668.76 485.5 L 670.17 481.244 L 675.094 479 L 686.5 478.973 L 690.96 477.777 L 692.026 446.574 L 694.083 444.517 L 705.5 443.5 L 707 427 L 727 425 L 726.261 392.202 L 731.094 390 H 746.063 L 746.929 387.5 L 747.586 356.874 L 750.5 355.031 L 761 355 L 760.828 322.162 L 764.598 320.144 L 776.957 318.746 L 778.566 269.034 L 780.848 266.752 L 792.5 265.5 L 793.5 232.5 L 811.5 230.5 V 201.162 L 809.834 199.5 H 283.5 L 282.963 245.949 L 279.5 247.727 L 264.763 248.903 L 263.573 250.094 L 262.801 279.5 L 261.083 282.714 H 249.795 L 248.031 285.5 L 248.015 308.14 L 248 330.778 L 244.447 335.166 L 228 336 L 228 369 L 225.5 371.75 L 217.75 372.252 L 215 375 V 402.69 L 211.5 405.779 L 198.006 406.594 L 195.786 408.814 L 194.978 438.5 L 191.618 441 H 179.164 L 176 443 L 176 455 L 171 460 L 160.726 461.584 L 160.5 491.694 L 158.001 494.703 L 141.634 495.965 L 140.188 497.5 L 140 532 L 645.62 532.254 Z M 718.5 296.195 L 712 296 L 712.038 289 H 715.882 L 717.5 286.5 L 718.61 264.175 L 721.245 261 H 725.6 L 728 258.6 V 245.164 L 729.214 242 H 736.786 L 738 238.836 V 226.382 L 748 226 L 748 251 L 746 254 H 742.143 L 739 257.143 L 738 272 L 730.5 273.986 L 730 284.674 L 729.5 295.362 Z M 655 294 L 655.146 289.5 L 660 285.833 L 661.5 263.225 L 669 260.103 V 248.13 L 671 243 L 679 242 L 678.933 227.994 L 680.939 224.245 L 687.5 224.124 L 688.5 225.094 L 689.165 250.099 L 686 254 L 680.968 253.955 L 679 259.13 V 272 L 673.309 274.753 L 672.737 284.339 L 672.165 293.924 L 670.882 296 H 655 Z" fill="#000000"/>
</svg>